<svg width="25" height="24" viewBox="0 0 25 24" fill="none" xmlns="http://www.w3.org/2000/svg">
<g id="Apple">
<path id="Vector" d="M22.2724 18.7033C21.9062 19.5418 21.4726 20.3136 20.9703 21.0232C20.2857 21.9906 19.725 22.6602 19.293 23.032C18.6233 23.6424 17.9057 23.955 17.1373 23.9728C16.5857 23.9728 15.9204 23.8172 15.146 23.5017C14.3691 23.1876 13.6551 23.032 13.0023 23.032C12.3176 23.032 11.5833 23.1876 10.7978 23.5017C10.0112 23.8172 9.3775 23.9816 8.89299 23.9979C8.15613 24.0291 7.42166 23.7076 6.68854 23.032C6.22063 22.6276 5.63536 21.9343 4.93423 20.9521C4.18197 19.9033 3.56351 18.687 3.079 17.3004C2.56011 15.8026 2.29999 14.3523 2.29999 12.9482C2.29999 11.3398 2.6507 9.95259 3.35318 8.79011C3.90526 7.85636 4.63972 7.11979 5.55896 6.57906C6.47821 6.03834 7.47145 5.76279 8.54108 5.74516C9.12635 5.74516 9.89385 5.92456 10.8476 6.27715C11.7987 6.63091 12.4094 6.81032 12.6771 6.81032C12.8773 6.81032 13.5557 6.60054 14.7058 6.18233C15.7933 5.79449 16.7112 5.63391 17.4632 5.69716C19.5008 5.86012 21.0316 6.6561 22.0497 8.09013C20.2274 9.18432 19.3259 10.7169 19.3438 12.6829C19.3603 14.2142 19.9209 15.4886 21.0227 16.5004C21.522 16.97 22.0796 17.333 22.7 17.5907C22.5654 17.9774 22.4234 18.3477 22.2724 18.7033ZM17.5992 0.480137C17.5992 1.68041 17.1567 2.8011 16.2747 3.8384C15.2103 5.07155 13.9229 5.78412 12.5267 5.67168C12.509 5.52769 12.4986 5.37614 12.4986 5.21688C12.4986 4.06462 13.0048 2.83147 13.9037 1.82321C14.3525 1.3127 14.9233 0.888228 15.6155 0.549615C16.3061 0.216055 16.9594 0.031589 17.5738 0C17.5918 0.160458 17.5992 0.320926 17.5992 0.480121V0.480137Z" fill="black"/>
</g>
</svg>
